/* XPM */
static char *result[] = {
/* columns rows colors chars-per-pixel */
"32 32 159 2 ",
"   c #2D1C1B",
".  c #382422",
"X  c #4E0807",
"o  c #5C0101",
"O  c #660000",
"+  c #6B0000",
"@  c #750102",
"#  c #7C0001",
"$  c #7C0B09",
"%  c #442D2A",
"&  c #503631",
"*  c #5B413B",
"=  c #7B584B",
"-  c #850001",
";  c #8C0002",
":  c #8A0C0A",
">  c #920002",
",  c #9B0003",
"<  c #940D0B",
"1  c #911314",
"2  c #A30004",
"3  c #AB0004",
"4  c #AD060B",
"5  c #B40005",
"6  c #BC0006",
"7  c #B9090E",
"8  c #B81116",
"9  c #97221A",
"0  c #B31D21",
"q  c #9C2E24",
"w  c #A72C2F",
"e  c #C30007",
"r  c #C80007",
"t  c #C3020A",
"y  c #CC0008",
"u  c #D30008",
"i  c #DB0009",
"p  c #CD0810",
"a  c #D50D15",
"s  c #DC1018",
"d  c #E4000A",
"f  c #EC000A",
"g  c #F4000B",
"h  c #FC000C",
"j  c #F50712",
"k  c #F2101A",
"l  c #C81A21",
"z  c #FD1420",
"x  c #E8222B",
"c  c #8B4A3C",
"v  c #EA3C43",
"b  c #816658",
"n  c #856C59",
"m  c #886D5D",
"M  c #B7654D",
"N  c #907360",
"B  c #967966",
"V  c #9B7F69",
"C  c #9C6F70",
"Z  c #9F7C7C",
"A  c #BB6164",
"S  c #B97375",
"D  c #C25A5D",
"F  c #FC434C",
"G  c #CE6A6E",
"H  c #D07074",
"J  c #F5636A",
"K  c #EF787D",
"L  c #978364",
"P  c #AB8766",
"I  c #A1836C",
"U  c #AC8768",
"Y  c #A6886F",
"T  c #AD896B",
"R  c #A68870",
"E  c #AD8D72",
"W  c #B18F72",
"Q  c #B39275",
"!  c #B39379",
"~  c #BB9C7C",
"^  c #BB9576",
"/  c #C18768",
"(  c #9E8B8C",
")  c #9D908B",
"_  c #BE9E81",
"`  c #BFA080",
"'  c #BDA982",
"]  c #A19FA0",
"[  c #BF9FA0",
"{  c #A2A1A1",
"}  c #A8A7A7",
"|  c #ADACAC",
" . c #B0AFAF",
".. c #B3B2B3",
"X. c #BCBBBC",
"o. c #D8898C",
"O. c #CB9597",
"+. c #C3A383",
"@. c #C4A983",
"#. c #CBA986",
"$. c #CBAB88",
"%. c #D2B28C",
"&. c #D9B68E",
"*. c #D8B88F",
"=. c #D9B790",
"-. c #DCBA91",
";. c #E1BD93",
":. c #CAB2B4",
">. c #C0BFBF",
",. c #C5B0B1",
"<. c #FBA5A9",
"1. c #F7ADB0",
"2. c #E6B1B3",
"3. c #F6B6B9",
"4. c #D8C293",
"5. c #E4C196",
"6. c #E6C498",
"7. c #EAC79A",
"8. c #ECC99C",
"9. c #F0CD9D",
"0. c #F3D09F",
"q. c #F5D3A1",
"w. c #F9D6A3",
"e. c #FBDBA6",
"r. c #FADDA8",
"t. c #F3DBA6",
"y. c #EFE3AC",
"u. c #FCE3AC",
"i. c #F7E6AE",
"p. c #FCECB2",
"a. c #FEF2BA",
"s. c #C1BFC0",
"d. c #C5C1C2",
"f. c #C8C7C8",
"g. c #CDCCCD",
"h. c #D5C9C9",
"j. c #D4D3D3",
"k. c #D8D7D8",
"l. c #DCDCDC",
"z. c #E6CBCD",
"x. c #FACBCD",
"c. c #F8CFD1",
"v. c #E9D6D7",
"b. c #E6DAD1",
"n. c #E4DCDD",
"m. c #F5DEDF",
"M. c #FADFE1",
"N. c #E4E4E4",
"B. c #E8E7E8",
"V. c #ECECEC",
"C. c #E8E4E4",
"Z. c #F8E8E9",
"A. c #EFF0EF",
"S. c #F0F0EF",
"D. c #F4F3F4",
"F. c #F9F4F4",
"G. c #F8F7F8",
"H. c #FAF9F9",
"J. c None",
/* pixels */
"J.J.J.J.J.J.J.J.J.J.J.J.f f g j j g h h J.J.J.J.J.J.J.J.J.J.J.J.",
"J.J.J.J.J.J.J.J.J.i d d v v.B.V.A.D.Z.F h h J.J.J.J.J.J.J.J.J.J.",
"J.J.J.J.J.J.J.J.i d d z.B.V.A.D.D.D.D.H.Z.h h h J.J.J.J.J.J.J.J.",
"J.J.J.J.J.J.y u i i n.B.V.D.D.D.H.D.H.H.H.F.h h h h J.J.J.J.J.J.",
"J.J.J.J.J.r y i i 2.N.V.A.A.D.D.G.H.H.H.H.H.x.h h h h J.J.J.J.J.",
"J.J.J.J.e r u u s l.N.V.A.D.D.D.G.H.H.H.H.H.H.k h h h g J.J.J.J.",
"J.J.J.J.e r u u o.l.N.B.V.A.D.G.H.H.H.H.H.H.H.<.h h h g J.J.J.J.",
"J.J.J.8 e r u u h.l.N.B.V.A.D.G.G.H.H.H.H.H.H.F.h h g h k J.J.J.",
"J.J.X.D 6 e y u j.l.n.B.B.A.A.D.G.H.H.H.H.H.H.G.g g g g J V.J.J.",
"J.J.>.O.6 e r y h.k.n.B.B.V.A.S.D.D.G.H.H.H.H.F.g g g g 1.D.J.J.",
"J. .>.,.6 e e r O.k.l.B.B.B.V.A.S.D.D.G.H.H.H.3.f f g g x.G.B.J.",
"J. .>.,.5 6 e e l g.k.N.B.B.B.A.V.S.D.D.F.G.H.x f f f f c.H.V.J.",
"J...X.| 6 6 6 6 e :.j.k.l.N.B.B.V.V.A.S.D.D.m.d d d d f 3.G.A.J.",
"] | ..S 3 5 5 6 e 7 g.g.j.l.l.N.C.B.V.V.S.S.i d d d d d K G.D.l.",
"{ } ..w 2 3 3 5 5 6 7 d.g.j.j.k.l.l.N.N.C.a u u i i i d x G.D.l.",
"{ { } , 2 2 3 3 3 5 5 5 A d.f.g.g.j.j.H r r u u u u u i u D.D.N.",
"} ] ( > > , 2 2 2 2 2 3 3 3 4 0 0 7 5 6 6 t e e r y u u u 2.S.n.",
"] ] 1 ; ; > ; > > , , , , , , 2 2 2 3 3 3 5 6 6 e e e r y p B.k.",
"] C ; ; - - ; - ; ; ; ; ; > > > > > > , 2 2 3 3 5 5 6 6 t t G g.",
"Z > > > ; - - - - ; ; ; ; ; ; ; > > > > > > > , 2 2 3 3 5 5 6 S ",
"J.> > ; - - - - - - - - - : 9 q q 9 < > ; > > ; > > , 2 2 3 3 J.",
"J.> > ; - - - # # + c ! +.%.=.=.;.7.7.8.;.M ; ; ; ; ; > > , , J.",
"J.J.> ; - # $ X c L ! ` ) @.=.-.6.7.%.) 8.8.5./ - ; ; ; > > J.J.",
"J.J.> ; $ O X = B E +.@.b.~ r.u.p.p.~ b.t.u.0.7.%.$ # - ; > J.J.",
"J.J.J.; @ o = m R $.;.=.* @.u.p.p.p.~ * y.a.a.u.8.^ + # ; J.J.J.",
"J.J.J.J.J.+ m B +.=.6.=.% @.u.i.p.a.@.& y.a.a.p.i.*.O J.J.J.J.J.",
"J.J.J.J.J.J.N I _ %.-.;.  *.r.u.i.p.4.. p.p.p.u.u.7.J.J.J.J.J.J.",
"J.J.J.J.J.J.V R ! +.%.=.m 8.q.e.0.u.u.L u.u.u.e.q.*.J.J.J.J.J.J.",
"J.J.J.J.J.J.J.E ! ! +.$.%.-.5.7.0.0.0.0.0.w.0.0.-.J.J.J.J.J.J.J.",
"J.J.J.J.J.J.J.E E ! E ! ~ ~ #.%.&.*.5.7.5.;.-.#.^ J.J.J.J.J.J.J.",
"J.J.J.J.J.J.J.J.J.T W W W W Q W W ^ ^ W Q Q E J.J.J.J.J.J.J.J.J.",
"J.J.J.J.J.J.J.J.J.J.J.P P P P P P P P P U J.J.J.J.J.J.J.J.J.J.J."
};
