/* XPM */
static char *result[] = {
/* columns rows colors chars-per-pixel */
"32 32 100 2 ",
"   c #733800",
".  c #5D4902",
"X  c #5F4B04",
"o  c #604B01",
"O  c #614B01",
"+  c #614C01",
"@  c #604C04",
"#  c #6E5903",
"$  c #6F5A03",
"%  c #766E4A",
"&  c #766E4B",
"*  c #776E4B",
"=  c #776F4B",
"-  c #78704E",
";  c #756F54",
":  c #766F54",
">  c #7B7353",
",  c #BD5B01",
"<  c #886F04",
"1  c #8A7104",
"2  c #8A7105",
"3  c #8C7304",
"4  c #816C11",
"5  c #816D11",
"6  c #937B15",
"7  c #937B16",
"8  c #957B14",
"9  c #947B15",
"0  c #947B16",
"q  c #B06A01",
"w  c #807024",
"e  c #BE9C04",
"r  c #9F8C31",
"t  c #CEAC08",
"y  c #CFAD08",
"u  c #D0AE08",
"i  c #D2AF0E",
"p  c #D6B202",
"a  c #D6B302",
"s  c #D6B203",
"d  c #DAB601",
"f  c #D9B503",
"g  c #E3BE03",
"h  c #E4BF05",
"j  c #C3A92B",
"k  c #D8BA29",
"l  c #D8BE39",
"z  c #D9BF3C",
"x  c #E3C002",
"c  c #E4C002",
"v  c #E5C003",
"b  c #E4C005",
"n  c #E5C005",
"m  c #E9C302",
"M  c #E9C402",
"N  c #EAC402",
"B  c #EAC904",
"V  c #EACA04",
"C  c #EFCA0C",
"Z  c #EFCA0D",
"A  c #F2CB01",
"S  c #F1CA02",
"D  c #F1CB02",
"F  c #F2CA02",
"G  c #F2CB02",
"H  c #F2CB03",
"J  c #F0CA05",
"K  c #F2CB04",
"L  c #F2CC04",
"P  c #ECD102",
"I  c #F2D901",
"U  c #F2D902",
"Y  c #E8CB39",
"T  c #F3D638",
"R  c #F4D638",
"E  c #85816A",
"W  c #DFC749",
"Q  c #EFD85F",
"!  c #DBC969",
"~  c #DBC96A",
"^  c #A6A18F",
"/  c #A6A28F",
"(  c #D8CF9F",
")  c #D3CBA4",
"_  c #D3CBA5",
"`  c #D2CCA4",
"'  c #D3CCA4",
"]  c #C0C0C0",
"[  c #C1C1C1",
"{  c #C8C8C8",
"}  c gray79",
"|  c #ECE7CF",
" . c #ECE8D1",
".. c gray90",
"X. c #F5F4EB",
"o. c #F6F5EC",
"O. c #F6F5ED",
"+. c #F1F1F1",
"@. c gray95",
"#. c None",
/* pixels */
"  #.#.#.#.#.#.#.#.#.#.#.#.#.#.#.#.#.#.#.#.#.#.#.#.#.#.#.#.#.#.#.",
", q #.#.#.#.#.#.#.#.#.#.#.#.#.#.#.#.#.#.#.#.#.#.#.#.#.#.#.#.#.#.",
"#.#.#.#.#.#.#.#.#.#.#.#.#.#.#.#.#.#.#.#.#.#.#.#.#.#.#.#.#.#.#.#.",
"#.#.i I U U U U U U U U U U U U I U U U U U U U U U U U U P #.#.",
"#.#.e G # 1 G G G G G G G G G G G G G G G G G G G G G $ < M #.#.",
"#.#.e c 7 9 G G G G G G G G G G G G G G G G G G G G v 6 8 m #.#.",
"#.#.e G u V G G G G K K L K K K K K K K K K K G G G A u V M #.#.",
"#.#.e G G G G G G | @.@.@.@.@.@.@.@.@.@.@.@.@.! G G G G G M #.#.",
"#.#.e G G G G G | @.@.@.@.@.@.@.@.@.@.@.@.@.@.@.~ G G G G M #.#.",
"#.#.e G G G G ( @.@.@.@.@.@.@.@.@.@.@.@.@.@.@.@.@.k G G G M #.#.",
"#.#.e G G G G ` @.@.@.@.+.- % % * & = E @.@.@.@.@.j G G G M #.#.",
"#.#.e G G G G ' @.@.@.@...S G G G G G Z @.@.@.@.@.j G G G M #.#.",
"#.#.e G G G G ) @.@.@.@...S G G G G G C @.@.@.@.@.j G G G M #.#.",
"#.#.e G G G G _ @.@.@.@...S G G G G G C @.@.@.@.@.j G G G M #.#.",
"#.#.e G G G G r ; ; ; : > S G G R T R Q @.@.@.@.@.j G G G M #.#.",
"#.#.e G G G G G D G D D F G G  .@.@.@.@.@.@.@.@.@.j G G G N #.#.",
"#.#.e G G G G G G G G G G G  .@.@.@.@.@.@.@.@.@./ f G G G M #.#.",
"#.#.e G G G G G G G G G G W @.@.@.@.@.@.@.@.@.^ s G G G G M #.#.",
"#.#.e G G G G G G G G G G W @.@.@.@.@.w 4 5 4 s G G G G G M #.#.",
"#.#.e G G G G G G G G G G W @.@.@.@.+.b G G G G G G G G G M #.#.",
"#.#.e G G G G G G G G G G W @.@.@.@.+.n G G G G G G G G G M #.#.",
"#.#.e G G G G G G G G G G z } } } } { b G G G G G G G G G m #.#.",
"#.#.e G G G G G G G G G G G a p p a a G G G G G G G G G G M #.#.",
"#.#.e G G G G G G G G G G Y O.o.O.o.X.J A G G G G G G G G M #.#.",
"#.#.e G G G G G G G G G G W @.@.@.@.+.b G G G G G G G G G m #.#.",
"#.#.e G G G G G G G G G G W @.@.@.@.+.b G G G G G G G G G M #.#.",
"#.#.e G G G G G G G G G G l [ [ [ [ ] h G G G G G G G G G M #.#.",
"#.#.e H @ 2 A G G G G G G G d d d d d G G G G G G G G X 3 M #.#.",
"#.#.e x 9 8 G G G G G G G G G G G G G G G G G G G G g 0 8 m #.#.",
"#.#.e G y B G G G G G G G G G G G G G G G G G G G G A t V M #.#.",
"#.#.#.O O o + + + o O + + O + o + + + + + + O + O o O + o . #.#.",
"#.#.#.#.#.#.#.#.#.#.#.#.#.#.#.#.#.#.#.#.#.#.#.#.#.#.#.#.#.#.#.#."
};
