/* XPM */
static char *result[] = {
/* columns rows colors chars-per-pixel */
"32 32 89 1 ",
"  c #271C12",
". c #271D12",
"X c #2A1D12",
"o c #2B1D12",
"O c #2F2014",
"+ c #312114",
"@ c #322114",
"# c #332215",
"$ c #372114",
"% c #342215",
"& c #372214",
"* c #382214",
"= c #392214",
"- c #3A2214",
"; c #3F3020",
": c #432113",
"> c #412212",
", c #422212",
"< c #512A17",
"1 c #522A17",
"2 c #532B18",
"3 c #552C18",
"4 c #562C18",
"5 c #572C18",
"6 c #572D18",
"7 c #40301F",
"8 c #69341D",
"9 c #6A351D",
"0 c #6C361E",
"q c #443322",
"w c #703F24",
"e c #704024",
"r c #734125",
"t c #744125",
"y c #754226",
"u c #784326",
"i c #794326",
"p c #7D4225",
"a c #804326",
"s c #834527",
"d c #8B4828",
"f c #8C4828",
"g c #8D4928",
"h c #914B2A",
"j c #924B2A",
"k c #924C2A",
"l c #934C2A",
"z c #934D2A",
"x c #944C2A",
"c c #944D2A",
"v c #974E2B",
"b c #974F2B",
"n c #984F2B",
"m c #984F2C",
"M c #994F2C",
"N c #99502C",
"B c #D56E3D",
"V c #D56F3D",
"C c #D66F3D",
"Z c #D76F3D",
"A c #D7703E",
"S c #D8703E",
"D c #D8713E",
"F c #E4824B",
"G c #E7854D",
"H c #E7864D",
"J c #F0894F",
"K c #F08A4F",
"L c #F08A50",
"P c #F18A50",
"I c #F08B50",
"U c #F18B50",
"Y c #F18B51",
"T c #F18C51",
"R c #F18D51",
"E c #F38C51",
"W c #F38D51",
"Q c #F38D52",
"! c #F38E52",
"~ c #F38E53",
"^ c #F38F53",
"/ c #F19055",
"( c #F29055",
") c #F29357",
"_ c #F39357",
"` c #F9C78A",
"' c #FAC889",
"] c #FACC8B",
"[ c None",
/* pixels */
"pJJJJJJJJJJJKK/[[FKLLLLLIIIIIII`",
"6lllllllllzlzzNy=gcccccccccccccD",
"6lllllllllllllNy=gcccccccccccccS",
"5lllllllllllllNy=gcccccccccccccS",
"5lllllllllllllMy=gllzzcccccccccS",
"5lllllllllllllMy=glllllzlxcccccS",
"5lllllllllllllMy=gllllllllllcccS",
"5lllllllllllllMy=glllllllllllzlS",
"5lllllllllllllMy=glllllllllllllS",
":22222222222223#X122222222222220",
"[ .............................[",
"aPPPUU(qOFUUUUUYTTTTTT)7+GTTRRR'",
"5lllllmi&fllllllllllllNe-glllllA",
"5kkkklni&fllllllllllllNw=glllllA",
"5kkkkkni&fllllllllllllMw=glllllA",
"4kkkkknu&fllllllllllllMw=glllllA",
"4kkkkknu&dkkklllllllllMw=glllllZ",
"4kkkkkbu&dkkkkklllllllMw=glllllC",
"4kkkkkbu$dkkkkkkkkllllMw=glllllC",
"4kkkkkbu$dkkkkkkkkkkklMw=glllllC",
",222223%X<2222222222223@o<222229",
"[ ..     ..  ..................[",
"sEWWWWWWWQQQQQ_;OH!!!!!!~^^^^^^]",
"4kkkkkkkkkkkkknt*fkkkkkkkkkkkkkC",
"4kkkkkkkkkkkkknt*fkkkkkkkkkkkkkC",
"4jjjjjkkkkkkkknt*fkkkkkkkkkkkkkV",
"4jjjjjkjkkkkkknt*fkkkkkkkkkkkkkV",
"4jjjjjjjkkkkkknt*fkkkkkkkkkkkkkV",
"4hjhjjjjjjjjjjbr*fkkkkkkkkkkkkkV",
"4hhhhhjjjjjjjjvr*fkkkkkkkkkkkkkV",
"4hhhhhhhhjjjjjvr*dkkkjkkkkkkkkkB",
">22222222222223[[122222222222228"
};
