/* XPM */
static char *result[] = {
/* columns rows colors chars-per-pixel */
"32 32 202 2 ",
"   c #1C090A",
".  c #250C0B",
"X  c #330F11",
"o  c #3A3416",
"O  c #3B1721",
"+  c #491907",
"@  c #441510",
"#  c #6F1110",
"$  c #572714",
"%  c #55230E",
"&  c #75391A",
"*  c #762E18",
"=  c #561A35",
"-  c #472924",
";  c #622C37",
":  c #2E5019",
">  c #2C661E",
",  c #30781E",
"<  c #1F4522",
"1  c #255B25",
"2  c #2C5637",
"3  c #2A6627",
"4  c #2E7D25",
"5  c #2D7527",
"6  c #327B24",
"7  c #316B34",
"8  c #347335",
"9  c #69501E",
"0  c #474323",
"q  c #775528",
"w  c #4E6D30",
"e  c #7D6336",
"r  c #2F1E53",
"t  c #1C2053",
"y  c #2B3956",
"u  c #0C2575",
"i  c #0C277B",
"p  c #0F286A",
"a  c #333D6E",
"s  c #6F1C49",
"d  c #573B4B",
"f  c #3B4E4B",
"g  c #396548",
"h  c #30416D",
"j  c #425D53",
"k  c #704A57",
"l  c #65785B",
"z  c #594F70",
"x  c #765C7A",
"c  c #566C6C",
"v  c #890101",
"b  c #940000",
"n  c #9B0202",
"m  c #950F0E",
"M  c #AB0303",
"N  c #A50000",
"B  c #BB0202",
"V  c #9F2E19",
"C  c #AA2818",
"Z  c #8A2633",
"A  c #A02D26",
"S  c #C90606",
"D  c #D30303",
"F  c #CE1E0D",
"G  c #EA0707",
"H  c #FE100F",
"J  c #F81716",
"K  c #F30807",
"L  c #CE301C",
"P  c #D41A2A",
"I  c #DC372E",
"U  c #BF4E0C",
"Y  c #B45E2B",
"T  c #C64B0B",
"R  c #CF540E",
"E  c #E75F10",
"W  c #D3690D",
"Q  c #E96513",
"!  c #FA6B13",
"~  c #FF7717",
"^  c #F34731",
"/  c #C8723D",
"(  c #97595C",
")  c #AF5A4E",
"_  c #99644D",
"`  c #B36E54",
"'  c #BB6F6D",
"]  c #CF5950",
"[  c #F95251",
"{  c #C9635B",
"}  c #F06F59",
"|  c #CC7A64",
" . c #2F8129",
".. c #318329",
"X. c #328B2A",
"o. c #378928",
"O. c #33932C",
"+. c #399A2E",
"@. c #378C32",
"#. c #3B9B32",
"$. c #3EA132",
"%. c #429A2B",
"&. c #459E3A",
"*. c #43AC35",
"=. c #46A639",
"-. c #4BB53B",
";. c #4DB83B",
":. c #4FC13F",
">. c #51A445",
",. c #68AC6A",
"<. c #55CB45",
"1. c #59CE49",
"2. c #54C647",
"3. c #5CD24B",
"4. c #5AD749",
"5. c #4DCA41",
"6. c #61D74D",
"7. c #64C658",
"8. c #65DB54",
"9. c #63CF4B",
"0. c #69E557",
"q. c #72F15B",
"w. c #75DE61",
"e. c #76EC62",
"r. c #7BEB68",
"t. c #7CF767",
"y. c #DD8019",
"u. c #FE8C1F",
"i. c #FF821B",
"p. c #FFA110",
"a. c #DF9222",
"s. c #F49122",
"d. c #E7DA03",
"f. c #F2E509",
"g. c #A48846",
"h. c #839678",
"j. c #D38670",
"k. c #D78C72",
"l. c #E48767",
"z. c #EBA07A",
"x. c #82F86D",
"c. c #89F974",
"v. c #E1DF42",
"b. c #0D2A84",
"n. c #0B2B8B",
"m. c #0E2E98",
"M. c #15308D",
"N. c #0E37A8",
"B. c #1136AC",
"V. c #133DBE",
"C. c #16428F",
"Z. c #5C689C",
"A. c #6C7688",
"S. c #7A7499",
"D. c #1342C3",
"F. c #1548C9",
"G. c #144DD7",
"H. c #1655E1",
"J. c #194FE3",
"K. c #937288",
"L. c #827DB2",
"P. c #748598",
"I. c #72918B",
"U. c #7E8FB8",
"Y. c #5F9DCF",
"T. c #8FAD8F",
"R. c #A0A48D",
"E. c #8788A1",
"W. c #889AA7",
"Q. c #9E9BBF",
"!. c #A796AE",
"~. c #98A4AA",
"^. c #9EAEB6",
"/. c #A0ADB5",
"(. c #F89391",
"). c #F0AF90",
"_. c #F9A3A1",
"`. c #A6E79E",
"'. c #BBE5BB",
"]. c #F9C99D",
"[. c #FDDAAC",
"{. c #C6F2BF",
"}. c #8798C9",
"|. c #9BA9CB",
" X c #A2AEC9",
".X c #A4ACD3",
"XX c #B2B9D4",
"oX c #A5B3CA",
"OX c #B7C3D8",
"+X c #BCC8E5",
"@X c #C5C3DA",
"#X c #F0F3D0",
"$X c #C9D8EB",
"%X c #D9DCFA",
"&X c #C8C2F6",
"*X c #DBE9FB",
"=X c #D7E2EF",
"-X c #E7F3FC",
";X c #FCFEFF",
":X c #F2F8FD",
">X c #E6EAF4",
",X c None",
/* pixels */
",X,X,X,X,X,X,X,X,X,XK J [ ,X,X,X,X,X,X,X,X,X,X,X,X,X,X,X,X,X,X,X",
",X,X,X,X,X,X,X,XB G H (.[ (.,X,X,X,X,X,X,X,X,X,X,X,X,X,X,X,X,X,X",
",X,X,X,X,X,X,XN S G J J _.[ ,X,X,X,X,X,X,X,X,X,X,X,X,X,X,X,X,X,X",
",X,X,X,X,X-X,XN D G D m # v v n ,X,X,X8.e.q.e.,X,X,X6.e.c.,X,X,X",
",X,X,X,X,X-Xb N B m - ( | ; v ,X,X,Xo.3.r.#X;X,X>.6.e.x.7.w.,X,X",
",XoXOX:X+X-X) b + j._.Y.[.P.,X,X,X,X6 =.{.;XA.$.-.2.0.t.c.x.e.,X",
"oX+X=X:X:X:X>X) + Y [.u ).).#X].,X,X6 6 2 h ^.X.+.-.3.0.t.t.e.0.",
"|.oX$X$X*X-X%X{ Z l.` .   ' k._ ,X^ 9 6 ,.y c X.X.+.-.1.0.0.0.4.",
"|.|.}.}.}.U.!.J ^ } | k.o   X ,X,XL C 5 1.7.3  .X.X.+.$.5.<.<.5.",
",X,X,X,X,XE.b S J I } l.O O z.,X,X,X& @.`.{.g ..X.X.X.O.$.$.$.$.",
",X,X,X,X,X,Xn b B J Z ] l.k.,X,X,X,X9 @X:X;X&X7 X.X.X.X.O.+.$.,X",
",X,X,X,X,X,X,Xn n M S r F.P P k F L K.XX-X;X%XL.4 X.O.O.O.$.,X,X",
",X,X,X,X,X,X,X,Xn b M J y v.H.H.a C S.|.+X*X%X.XX o @.#.+.,X,X,X",
",X,X,X,X,X,X,X,X,Xn M s D.G.H.H.F.S.x U.|.OXOXXXQ.= z ,X,X,X,X,X",
",X,X,X,X,X,X,X,X,X,X= n.B.D.G.G.F.Z.A z S.W.~.~./.XX+X,X,X,X,X,X",
",X,X,X,X,X,X,X,X,X,Xn.m.N.N.D.G.G.,XC * - j c A.,X,X,X,X,X,X,X,X",
",X,X,X,X,X,X,X,X,X,Xn.n.b.n.m.N.F.J.,X,X> 8 7 P.,X,X,X,X,X,X,X,X",
",X,X,X,X,X,X,X,X,X,X,Xi i u i i B.F.C.1 +.q.8.W.,X,X,X,X,X,X,X,X",
",X,X,X,X,X,X,X,X,X,X,Xb.i p p i B.F.G.w g.9.t. X,X,X,X,X,X,X,X,X",
",X,X,X,X,X,X,X,X,X,X,X,XZ # = i m.V.d Y / ` t.'.,X,X,X,X,X,X,X,X",
",X,X,X,X,X,X,X,X,X,X3 1 h.R.l u M.M.& * & 9 8.e.,X,X,X,X,X,X,X,X",
",X,X,X,X,X,X,X,X,X,X .7 5 3 1 t r % @ $ e < ;.x.,X,X,X,X,X,X,X,X",
",X,X,X,X,X,X,X,X,X,X,.6 , > > : + % - 3 =.j @.x.,X,X,X,X,X,X,X,X",
",X,X,X,X,X,X,X,X,X,X,XR.> : > o.w 3 8 O.,.c &.c.0.,X,X,X,X,X,X,X",
",X,X,X,X,X,X,X,X,X,Xf.u.u.e %.:.0.<.#.I.E.f <.x.4.,X,X,X,X,X,X,X",
",X,X,X,X,X,X,X,X,X,Xp.i.u.a.%.;.5.5.O. X,.3 %.6.2.,X,X,X,X,X,X,X",
",X,X,X,X,X,X,X,X,Xd.! ~ ! a.-.*.-.$.T.$X,X2...&.,X,X,X,X,X,X,X,X",
",X,X,X,X,X,X,X,X,Xp.~ ! T y.o.o.X. .,X,X,X#.o.>.,X,X,X,X,X,X,X,X",
",X,X,X,X,X,X,X,Xf.i.u.! T W ,  .,X,X,X,X,X,X,X,X,X,X,X,X,X,X,X,X",
",X,X,X,X,X,X,X,XW ! i.E ,XT ,X,X,X,X,X,X,X,X,X,X,X,X,X,X,X,X,X,X",
",X,X,X,X,X,X,X,XU E ! E ,X,X,X,X,X,X,X,X,X,X,X,X,X,X,X,X,X,X,X,X",
",X,X,X,X,X,X,X,XU U U ,X,X,X,X,X,X,X,X,X,X,X,X,X,X,X,X,X,X,X,X,X"
};
